<svg xmlns="http://www.w3.org/2000/svg" viewBox="0 0 820 460" role="img" aria-labelledby="title desc">
  <title id="title">Demo spectrum for WISEAJ000103.0</title>
  <desc id="desc">Synthetic demo 22 GHz spectrum used for ANCH0R interface testing.</desc>
  <rect width="820" height="460" fill="#ffffff"/>
  <text x="54" y="48" fill="#22312d" font-family="Inter, Arial, sans-serif" font-size="22" font-weight="700">WISEAJ000103.0</text>
  <text x="54" y="76" fill="#66736f" font-family="Inter, Arial, sans-serif" font-size="14">DEMO 22 GHz spectrum - GBT</text>
  <line x1="80" y1="370" x2="760" y2="370" stroke="#9aa8a4" stroke-width="1.5"/>
  <line x1="80" y1="96" x2="80" y2="370" stroke="#9aa8a4" stroke-width="1.5"/>
  <g stroke="#d7dfdc" stroke-width="1">
    <line x1="80" y1="300" x2="760" y2="300"/>
    <line x1="80" y1="230" x2="760" y2="230"/>
    <line x1="80" y1="160" x2="760" y2="160"/>
  </g>
  <polyline fill="none" stroke="#0f766e" stroke-width="3" stroke-linecap="round" stroke-linejoin="round" points="80,333 130,328 180,331 230,326 280,329 320,322 350,309 374,244 390,168 405,262 430,318 480,326 526,321 560,270 578,180 596,286 632,324 680,327 730,321 760,328"/>
  <text x="395" y="410" fill="#66736f" font-family="Inter, Arial, sans-serif" font-size="13" text-anchor="middle">Velocity</text>
  <text x="38" y="235" fill="#66736f" font-family="Inter, Arial, sans-serif" font-size="13" transform="rotate(-90 38 235)" text-anchor="middle">Flux density</text>
</svg>
