<svg xmlns="http://www.w3.org/2000/svg" viewBox="0 0 820 460" role="img" aria-labelledby="title desc">
  <title id="title">Demo spectrum for UGC12893</title>
  <desc id="desc">Synthetic demo 22 GHz spectrum used for ANCH0R interface testing.</desc>
  <rect width="820" height="460" fill="#ffffff"/>
  <text x="54" y="48" fill="#22312d" font-family="Inter, Arial, sans-serif" font-size="22" font-weight="700">UGC12893</text>
  <text x="54" y="76" fill="#66736f" font-family="Inter, Arial, sans-serif" font-size="14">DEMO 22 GHz spectrum - SRT</text>
  <line x1="80" y1="370" x2="760" y2="370" stroke="#9aa8a4" stroke-width="1.5"/>
  <line x1="80" y1="96" x2="80" y2="370" stroke="#9aa8a4" stroke-width="1.5"/>
  <g stroke="#d7dfdc" stroke-width="1">
    <line x1="80" y1="300" x2="760" y2="300"/>
    <line x1="80" y1="230" x2="760" y2="230"/>
    <line x1="80" y1="160" x2="760" y2="160"/>
  </g>
  <polyline fill="none" stroke="#d84b2a" stroke-width="3" stroke-linecap="round" stroke-linejoin="round" points="80,326 130,331 180,324 230,330 280,321 330,319 370,312 405,300 438,222 460,122 486,248 515,316 560,322 610,318 660,327 710,324 760,329"/>
  <text x="395" y="410" fill="#66736f" font-family="Inter, Arial, sans-serif" font-size="13" text-anchor="middle">Velocity</text>
  <text x="38" y="235" fill="#66736f" font-family="Inter, Arial, sans-serif" font-size="13" transform="rotate(-90 38 235)" text-anchor="middle">Flux density</text>
</svg>
